<svg width="636.96875px" height="122px" xmlns="http://www.w3.org/2000/svg" viewBox="-68.484375 14 636.96875 122" style="background: rgba(0, 0, 0, 0);" preserveAspectRatio="xMidYMid"><defs><filter id="editing-extrusion" x="-100%" y="-100%" width="300%" height="300%"><feFlood result="color1" flood-color="#444"></feFlood><feConvolveMatrix order="8,8" divisor="1" kernelMatrix="1 0 0 0 0 0 0 0 0 1 0 0 0 0 0 0 0 0 1 0 0 0 0 0 0 0 0 1 0 0 0 0 0 0 0 0 1 0 0 0 0 0 0 0 0 1 0 0 0 0 0 0 0 0 1 0 0 0 0 0 0 0 0 1" in="SourceAlpha" result="extrude"></feConvolveMatrix><feComposite in="color1" in2="extrude" result="comp-extrude" operator="in"></feComposite><feOffset dx="4" dy="4" in="comp-extrude" result="offset-extrude"></feOffset><feMerge><feMergeNode in="offset-extrude"></feMergeNode><feMergeNode in="SourceGraphic"></feMergeNode></feMerge></filter></defs><g filter="url(#editing-extrusion)"><g transform="translate(23.184982419013977, 104.79000091552734)"><path d="M16.45-3.52L16.45-3.52L16.45-3.52Q14.46 1.28 8.13 1.28L8.13 1.28L8.13 1.28Q4.86 1.28 2.82-0.96L2.82-0.96L2.82-0.96Q1.09-2.94 1.09-4.93L1.09-4.93L1.09-4.93Q1.09-10.11 3.46-20.22L3.46-20.22L5.82-32.64L18.82-33.92L14.91-13.70L14.91-13.70Q13.82-8.96 13.82-7.30L13.82-7.30L13.82-7.30Q13.82-3.65 16.45-3.52ZM6.98-41.54L6.98-41.54L6.98-41.54Q6.98-44.03 9.06-45.38L9.06-45.38L9.06-45.38Q11.14-46.72 14.14-46.72L14.14-46.72L14.14-46.72Q17.15-46.72 18.98-45.38L18.98-45.38L18.98-45.38Q20.80-44.03 20.80-41.54L20.80-41.54L20.80-41.54Q20.80-39.04 18.78-37.76L18.78-37.76L18.78-37.76Q16.77-36.48 13.76-36.48L13.76-36.48L13.76-36.48Q10.75-36.48 8.86-37.76L8.86-37.76L8.86-37.76Q6.98-39.04 6.98-41.54ZM67.97 1.28L67.97 1.28L67.97 1.28Q60.22 1.28 60.22-4.74L60.22-4.74L60.22-4.74Q60.22-7.36 61.34-12.45L61.34-12.45L61.34-12.45Q62.46-17.54 62.85-19.58L62.85-19.58L62.85-19.58Q63.74-24.26 63.74-25.73L63.74-25.73L63.74-25.73Q63.74-28.99 61.31-28.99L61.31-28.99L61.31-28.99Q59.71-28.99 58.18-26.78L58.18-26.78L58.18-26.78Q56.64-24.58 55.94-20.16L55.94-20.16L51.97 0L39.49 1.28L42.94-16.13L42.94-16.13Q43.52-19.01 44.03-22.27L44.03-22.27L44.03-22.27Q44.54-25.54 44.54-26.05L44.54-26.05L44.54-26.05Q44.54-28.99 42.37-28.99L42.37-28.99L42.37-28.99Q40.90-28.99 39.30-26.82L39.30-26.82L39.30-26.82Q37.70-24.64 36.80-20.16L36.80-20.16L32.90 0L20.29 1.28L27.01-32.64L37.44-33.92L36.35-27.46L36.35-27.46Q38.02-30.91 41.09-32.42L41.09-32.42L41.09-32.42Q44.16-33.92 48.96-33.92L48.96-33.92L48.96-33.92Q51.71-33.92 53.50-32.58L53.50-32.58L53.50-32.58Q55.30-31.23 55.87-29.06L55.87-29.06L55.87-29.06Q56.96-31.30 59.74-32.61L59.74-32.61L59.74-32.61Q62.53-33.92 65.95-33.92L65.95-33.92L65.95-33.92Q69.38-33.92 71.07-33.18L71.07-33.18L71.07-33.18Q72.77-32.45 73.79-31.23L73.79-31.23L73.79-31.23Q75.52-28.99 75.52-24.90L75.52-24.90L75.52-24.90Q75.52-20.86 73.79-12.48L73.79-12.48L73.79-12.48Q72.90-8.38 72.90-6.88L72.90-6.88L72.90-6.88Q72.90-5.38 73.76-4.48L73.76-4.48L73.76-4.48Q74.62-3.58 75.90-3.46L75.90-3.46L75.90-3.46Q75.26-1.28 73.06 0L73.06 0L73.06 0Q70.85 1.28 67.97 1.28ZM83.62-1.92L83.62-1.92L83.62-1.92Q82.11-3.58 81.44-6.21L81.44-6.21L81.44-6.21Q80.77-8.83 80.77-13.12L80.77-13.12L80.77-13.12Q80.77-17.41 82.24-21.31L82.24-21.31L82.24-21.31Q83.71-25.22 86.40-28.03L86.40-28.03L86.40-28.03Q91.90-33.92 100.99-33.92L100.99-33.92L100.99-33.92Q104.26-33.92 106.62-32.83L106.62-32.83L117.57-33.92L112.83-8.96L112.83-8.96Q112.64-8.19 112.64-6.78L112.64-6.78L112.64-6.78Q112.64-5.38 113.50-4.48L113.50-4.48L113.50-4.48Q114.37-3.58 115.65-3.46L115.65-3.46L115.65-3.46Q115.01-1.28 112.67 0L112.67 0L112.67 0Q110.34 1.28 107.71 1.28L107.71 1.28L107.71 1.28Q105.09 1.28 103.33 0.29L103.33 0.29L103.33 0.29Q101.57-0.70 101.06-2.37L101.06-2.37L101.06-2.37Q100.03-0.77 97.86 0.26L97.86 0.26L97.86 0.26Q95.68 1.28 92.77 1.28L92.77 1.28L92.77 1.28Q89.86 1.28 87.49 0.51L87.49 0.51L87.49 0.51Q85.12-0.26 83.62-1.92ZM97.12-27.90L97.12-27.90L97.12-27.90Q96.38-26.75 95.74-24.80L95.74-24.80L95.74-24.80Q95.10-22.85 94.05-17.63L94.05-17.63L94.05-17.63Q92.99-12.42 92.99-8.70L92.99-8.70L92.99-8.70Q92.99-4.99 93.57-3.90L93.57-3.90L93.57-3.90Q94.14-2.82 95.17-2.82L95.17-2.82L95.17-2.82Q97.22-2.82 98.72-4.77L98.72-4.77L98.72-4.77Q100.22-6.72 100.80-10.18L100.80-10.18L104.19-28.93L104.19-28.93Q102.85-30.08 101.28-30.08L101.28-30.08L101.28-30.08Q99.71-30.08 98.78-29.57L98.78-29.57L98.78-29.57Q97.86-29.06 97.12-27.90ZM125.31-26.75L125.31-26.75L125.31-26.75Q127.49-29.82 130.78-31.87L130.78-31.87L130.78-31.87Q134.08-33.92 138.11-33.92L138.11-33.92L138.11-33.92Q142.14-33.92 144.06-32.64L144.06-32.64L156.61-33.92L152.26-9.34L152.26-9.34Q150.02 3.20 145.28 8.13L145.28 8.13L145.28 8.13Q140.74 12.80 131.90 12.80L131.90 12.80L131.90 12.80Q125.18 12.80 121.34 10.69L121.34 10.69L121.34 10.69Q117.50 8.58 117.50 5.06L117.50 5.06L117.50 5.06Q117.50 2.43 119.49 0.93L119.49 0.93L119.49 0.93Q121.47-0.58 124.54-0.58L124.54-0.58L124.54-0.58Q127.23-0.58 129.28 0.64L129.28 0.64L129.28 0.64Q130.50 1.28 131.07 2.18L131.07 2.18L131.07 2.18Q129.60 3.46 129.60 5.57L129.60 5.57L129.60 5.57Q129.60 8.32 132.16 8.32L132.16 8.32L132.16 8.32Q136.45 8.32 138.88-1.79L138.88-1.79L138.88-1.79Q139.58-4.54 140.16-7.30L140.16-7.30L140.16-7.30Q137.28-3.78 130.75-3.78L130.75-3.78L130.75-3.78Q126.21-3.78 123.58-5.95L123.58-5.95L123.58-5.95Q120.96-8.13 120.96-13.25L120.96-13.25L120.96-13.25Q120.96-16.45 122.05-20.06L122.05-20.06L122.05-20.06Q123.14-23.68 125.31-26.75ZM133.63-13.06L133.63-13.06L133.63-13.06Q133.63-8.70 135.87-8.70L135.87-8.70L135.87-8.70Q137.41-8.70 138.88-10.37L138.88-10.37L138.88-10.37Q140.03-11.71 140.48-13.70L140.48-13.70L143.74-30.14L143.74-30.14Q143.42-30.21 143.10-30.34L143.10-30.34L143.10-30.34Q142.46-30.59 141.63-30.59L141.63-30.59L141.63-30.59Q137.73-30.59 135.42-24.19L135.42-24.19L135.42-24.19Q133.63-19.20 133.63-13.06ZM185.02-10.82L185.02-10.82L185.02-10.82Q186.62-9.73 186.62-7.33L186.62-7.33L186.62-7.33Q186.62-4.93 185.41-3.39L185.41-3.39L185.41-3.39Q184.19-1.86 182.21-0.83L182.21-0.83L182.21-0.83Q178.11 1.28 173.70 1.28L173.70 1.28L173.70 1.28Q169.28 1.28 166.69 0.32L166.69 0.32L166.69 0.32Q164.10-0.64 162.37-2.43L162.37-2.43L162.37-2.43Q158.98-5.82 158.98-12.03L158.98-12.03L158.98-12.03Q158.98-21.70 164.22-27.58L164.22-27.58L164.22-27.58Q169.86-33.92 179.65-33.92L179.65-33.92L179.65-33.92Q185.73-33.92 188.74-31.36L188.74-31.36L188.74-31.36Q190.98-29.44 190.98-26.30L190.98-26.30L190.98-26.30Q190.98-15.04 171.52-15.04L171.52-15.04L171.52-15.04Q171.26-13.38 171.26-11.97L171.26-11.97L171.26-11.97Q171.26-9.02 172.58-7.90L172.58-7.90L172.58-7.90Q173.89-6.78 176.32-6.78L176.32-6.78L176.32-6.78Q178.75-6.78 181.34-7.90L181.34-7.90L181.34-7.90Q183.94-9.02 185.02-10.82ZM171.97-17.79L171.97-17.79L171.97-17.79Q176.51-17.79 179.14-20.61L179.14-20.61L179.14-20.61Q181.76-23.30 181.76-27.58L181.76-27.58L181.76-27.58Q181.76-29.06 181.22-29.86L181.22-29.86L181.22-29.86Q180.67-30.66 179.58-30.66L179.58-30.66L179.58-30.66Q178.50-30.66 177.57-30.24L177.57-30.24L177.57-30.24Q176.64-29.82 175.68-28.42L175.68-28.42L175.68-28.42Q173.31-25.22 171.97-17.79ZM212.29-22.46L212.29-22.46L212.29-22.46Q213.18-24.83 213.18-26.88L213.18-26.88L213.18-26.88Q213.18-30.66 210.11-30.66L210.11-30.66L210.11-30.66Q208.51-30.66 207.20-29.22L207.20-29.22L207.20-29.22Q205.89-27.78 205.89-25.98L205.89-25.98L205.89-25.98Q205.89-24.70 206.91-23.68L206.91-23.68L206.91-23.68Q208.38-22.27 212.16-19.97L212.16-19.97L212.16-19.97Q215.94-17.66 217.38-15.78L217.38-15.78L217.38-15.78Q218.82-13.89 218.82-11.30L218.82-11.30L218.82-11.30Q218.82-8.70 217.57-6.34L217.57-6.34L217.57-6.34Q216.32-3.97 214.08-2.30L214.08-2.30L214.08-2.30Q209.28 1.28 201.60 1.28L201.60 1.28L201.60 1.28Q197.44 1.28 194.24-0.90L194.24-0.90L194.24-0.90Q191.04-3.01 191.04-5.50L191.04-5.50L191.04-5.50Q191.04-8 192.86-9.47L192.86-9.47L192.86-9.47Q194.69-10.94 197.38-10.94L197.38-10.94L197.38-10.94Q200.06-10.94 201.73-9.92L201.73-9.92L201.73-9.92Q200.90-7.81 200.90-6.40L200.90-6.40L200.90-6.40Q200.90-2.18 204.48-2.18L204.48-2.18L204.48-2.18Q206.02-2.18 207.04-3.14L207.04-3.14L207.04-3.14Q208.06-4.10 208.06-5.76L208.06-5.76L208.06-5.76Q208.06-9.02 202.56-12.48L202.56-12.48L202.56-12.48Q198.08-15.42 197.06-16.58L197.06-16.58L197.06-16.58Q195.33-18.62 195.33-21.18L195.33-21.18L195.33-21.18Q195.33-23.74 196.54-26.18L196.54-26.18L196.54-26.18Q197.76-28.61 200.00-30.34L200.00-30.34L200.00-30.34Q204.67-33.92 212.80-33.92L212.80-33.92L212.80-33.92Q216.96-33.92 219.42-32.26L219.42-32.26L219.42-32.26Q221.89-30.59 221.89-27.78L221.89-27.78L221.89-27.78Q221.89-24.96 220.19-23.36L220.19-23.36L220.19-23.36Q218.50-21.76 215.42-21.76L215.42-21.76L215.42-21.76Q213.31-21.76 212.29-22.46ZM250.18-20.61L263.10-21.76L263.10-21.76Q258.50-11.65 258.50 0.06L258.50 0.06L258.50 0.06Q256.77 1.28 254.24 1.28L254.24 1.28L254.24 1.28Q251.71 1.28 250.11 0.10L250.11 0.10L250.11 0.10Q248.51-1.09 248.19-2.30L248.19-2.30L248.19-2.30Q246.59-0.64 244 0.32L244 0.32L244 0.32Q241.41 1.28 238.66 1.28L238.66 1.28L238.66 1.28Q235.90 1.28 233.50 0.38L233.50 0.38L233.50 0.38Q231.10-0.51 229.25-2.50L229.25-2.50L229.25-2.50Q225.15-6.85 225.15-15.10L225.15-15.10L225.15-15.10Q225.15-27.90 232-35.58L232-35.58L232-35.58Q239.04-43.52 251.52-43.52L251.52-43.52L251.52-43.52Q260.16-43.52 263.23-39.04L263.23-39.04L263.23-39.04Q264.19-37.63 264.19-35.94L264.19-35.94L264.19-35.94Q264.19-34.24 263.46-32.80L263.46-32.80L263.46-32.80Q262.72-31.36 261.57-30.21L261.57-30.21L261.57-30.21Q258.82-27.65 255.42-27.65L255.42-27.65L255.42-27.65Q254.08-27.65 252.80-28.10L252.80-28.10L252.80-28.10Q253.06-30.02 253.06-32.26L253.06-32.26L253.06-32.26Q253.06-34.50 252.90-35.52L252.90-35.52L252.90-35.52Q252.74-36.54 252.35-37.38L252.35-37.38L252.35-37.38Q251.52-39.10 249.70-39.10L249.70-39.10L249.70-39.10Q247.87-39.10 245.86-37.15L245.86-37.15L245.86-37.15Q243.84-35.20 242.24-32L242.24-32L242.24-32Q238.72-24.83 238.72-16.19L238.72-16.19L238.72-16.19Q238.72-12.22 240.26-9.41L240.26-9.41L240.26-9.41Q241.92-6.34 244.86-6.34L244.86-6.34L244.86-6.34Q245.89-6.34 246.82-6.85L246.82-6.85L246.82-6.85Q247.74-7.36 248.13-7.74L248.13-7.74L250.18-20.61ZM269.02-1.92L269.02-1.92L269.02-1.92Q267.52-3.58 266.85-6.21L266.85-6.21L266.85-6.21Q266.18-8.83 266.18-13.12L266.18-13.12L266.18-13.12Q266.18-17.41 267.65-21.31L267.65-21.31L267.65-21.31Q269.12-25.22 271.81-28.03L271.81-28.03L271.81-28.03Q277.31-33.92 286.40-33.92L286.40-33.92L286.40-33.92Q289.66-33.92 292.03-32.83L292.03-32.83L302.98-33.92L298.24-8.96L298.24-8.96Q298.05-8.19 298.05-6.78L298.05-6.78L298.05-6.78Q298.05-5.38 298.91-4.48L298.91-4.48L298.91-4.48Q299.78-3.58 301.06-3.46L301.06-3.46L301.06-3.46Q300.42-1.28 298.08 0L298.08 0L298.08 0Q295.74 1.28 293.12 1.28L293.12 1.28L293.12 1.28Q290.50 1.28 288.74 0.29L288.74 0.29L288.74 0.29Q286.98-0.70 286.46-2.37L286.46-2.37L286.46-2.37Q285.44-0.77 283.26 0.26L283.26 0.26L283.26 0.26Q281.09 1.28 278.18 1.28L278.18 1.28L278.18 1.28Q275.26 1.28 272.90 0.51L272.90 0.51L272.90 0.51Q270.53-0.26 269.02-1.92ZM282.53-27.90L282.53-27.90L282.53-27.90Q281.79-26.75 281.15-24.80L281.15-24.80L281.15-24.80Q280.51-22.85 279.46-17.63L279.46-17.63L279.46-17.63Q278.40-12.42 278.40-8.70L278.40-8.70L278.40-8.70Q278.40-4.99 278.98-3.90L278.98-3.90L278.98-3.90Q279.55-2.82 280.58-2.82L280.58-2.82L280.58-2.82Q282.62-2.82 284.13-4.77L284.13-4.77L284.13-4.77Q285.63-6.72 286.21-10.18L286.21-10.18L289.60-28.93L289.60-28.93Q288.26-30.08 286.69-30.08L286.69-30.08L286.69-30.08Q285.12-30.08 284.19-29.57L284.19-29.57L284.19-29.57Q283.26-29.06 282.53-27.90ZM321.73-3.52L321.73-3.52L321.73-3.52Q319.74 1.28 313.41 1.28L313.41 1.28L313.41 1.28Q310.21 1.28 308.16-0.96L308.16-0.96L308.16-0.96Q306.50-2.82 306.50-4.93L306.50-4.93L306.50-4.93Q306.50-9.73 308.74-20.22L308.74-20.22L313.41-44.80L326.40-46.08L320.19-13.70L320.19-13.70Q319.10-8.96 319.10-7.30L319.10-7.30L319.10-7.30Q319.10-3.65 321.73-3.52ZM342.46-3.52L342.46-3.52L342.46-3.52Q340.48 1.28 334.14 1.28L334.14 1.28L334.14 1.28Q330.94 1.28 328.90-0.96L328.90-0.96L328.90-0.96Q327.23-2.82 327.23-4.93L327.23-4.93L327.23-4.93Q327.23-9.73 329.47-20.22L329.47-20.22L334.14-44.80L347.14-46.08L340.93-13.70L340.93-13.70Q339.84-8.96 339.84-7.30L339.84-7.30L339.84-7.30Q339.84-3.65 342.46-3.52ZM373.82-10.82L373.82-10.82L373.82-10.82Q375.42-9.73 375.42-7.33L375.42-7.33L375.42-7.33Q375.42-4.93 374.21-3.39L374.21-3.39L374.21-3.39Q372.99-1.86 371.01-0.83L371.01-0.83L371.01-0.83Q366.91 1.28 362.50 1.28L362.50 1.28L362.50 1.28Q358.08 1.28 355.49 0.32L355.49 0.32L355.49 0.32Q352.90-0.64 351.17-2.43L351.17-2.43L351.17-2.43Q347.78-5.82 347.78-12.03L347.78-12.03L347.78-12.03Q347.78-21.70 353.02-27.58L353.02-27.58L353.02-27.58Q358.66-33.92 368.45-33.92L368.45-33.92L368.45-33.92Q374.53-33.92 377.54-31.36L377.54-31.36L377.54-31.36Q379.78-29.44 379.78-26.30L379.78-26.30L379.78-26.30Q379.78-15.04 360.32-15.04L360.32-15.04L360.32-15.04Q360.06-13.38 360.06-11.97L360.06-11.97L360.06-11.97Q360.06-9.02 361.38-7.90L361.38-7.90L361.38-7.90Q362.69-6.78 365.12-6.78L365.12-6.78L365.12-6.78Q367.55-6.78 370.14-7.90L370.14-7.90L370.14-7.90Q372.74-9.02 373.82-10.82ZM360.77-17.79L360.77-17.79L360.77-17.79Q365.31-17.79 367.94-20.61L367.94-20.61L367.94-20.61Q370.56-23.30 370.56-27.58L370.56-27.58L370.56-27.58Q370.56-29.06 370.02-29.86L370.02-29.86L370.02-29.86Q369.47-30.66 368.38-30.66L368.38-30.66L368.38-30.66Q367.30-30.66 366.37-30.24L366.37-30.24L366.37-30.24Q365.44-29.82 364.48-28.42L364.48-28.42L364.48-28.42Q362.11-25.22 360.77-17.79ZM401.98-17.98L401.98-17.98L401.98-17.98Q404.29-22.08 404.29-26.24L404.29-26.24L404.29-26.24Q404.29-28.99 402.30-28.99L402.30-28.99L402.30-28.99Q400.77-28.99 399.17-26.37L399.17-26.37L399.17-26.37Q397.50-23.74 396.99-20.35L396.99-20.35L393.66 0L380.42 1.28L386.94-32.64L397.50-33.92L396.35-27.46L396.35-27.46Q399.49-33.92 406.53-33.92L406.53-33.92L406.53-33.92Q410.24-33.92 412.26-32L412.26-32L412.26-32Q414.27-30.08 414.27-26.14L414.27-26.14L414.27-26.14Q414.27-22.21 411.68-19.71L411.68-19.71L411.68-19.71Q409.09-17.22 404.67-17.22L404.67-17.22L404.67-17.22Q402.75-17.22 401.98-17.98ZM435.65-7.23L435.65-7.23L435.65-7.23Q432.32-3.78 426.24-3.78L426.24-3.78L426.24-3.78Q418.62-3.78 417.02-9.34L417.02-9.34L417.02-9.34Q416.51-11.01 416.51-12.86L416.51-12.86L416.51-12.86Q416.51-14.72 416.90-16.64L416.90-16.64L419.90-32.64L432.90-33.92L429.38-15.30L429.38-15.30Q429.25-14.46 429.06-13.57L429.06-13.57L429.06-13.57Q428.86-12.67 428.86-11.74L428.86-11.74L428.86-11.74Q428.86-10.82 429.18-10.21L429.18-10.21L429.18-10.21Q429.50-9.60 429.95-9.22L429.95-9.22L429.95-9.22Q430.72-8.70 432.10-8.70L432.10-8.70L432.10-8.70Q433.47-8.70 434.66-10.37L434.66-10.37L434.66-10.37Q435.84-12.03 436.42-14.91L436.42-14.91L439.94-32.64L452.54-33.92L447.74-8.77L447.74-8.77Q445.38 3.52 440.51 8.38L440.51 8.38L440.51 8.38Q438.02 10.88 434.78 11.87L434.78 11.87L434.78 11.87Q431.55 12.86 427.39 12.86L427.39 12.86L427.39 12.86Q420.67 12.86 416.83 10.75L416.83 10.75L416.83 10.75Q412.99 8.64 412.99 5.12L412.99 5.12L412.99 5.12Q412.99 2.50 414.98 0.99L414.98 0.99L414.98 0.99Q416.96-0.51 420.03-0.51L420.03-0.51L420.03-0.51Q422.72-0.51 424.77 0.64L424.77 0.64L424.77 0.64Q425.98 1.34 426.56 2.24L426.56 2.24L426.56 2.24Q425.09 3.52 425.09 5.63L425.09 5.63L425.09 5.63Q425.09 8.45 427.65 8.45L427.65 8.45L427.65 8.45Q431.87 8.45 434.30-1.28L434.30-1.28L434.30-1.28Q435.01-4.16 435.65-7.23Z" fill="#ccc"></path></g></g><style>text {
  font-size: 64px;
  font-family: Arial Black;
  dominant-baseline: central;
  text-anchor: middle;
}</style></svg>